<mxfile host="app.diagrams.net" agent="Mozilla/5.0 (Macintosh; Intel Mac OS X 10_15_7) AppleWebKit/537.36 (KHTML, like Gecko) Chrome/134.0.0.0 Safari/537.36" version="26.2.14">
  <diagram name="Page-1" id="6TltAOqpF7QTW61vlXQU">
    <mxGraphModel dx="1566" dy="2108" grid="1" gridSize="10" guides="1" tooltips="1" connect="1" arrows="1" fold="1" page="1" pageScale="1" pageWidth="850" pageHeight="1100" math="0" shadow="0">
      <root>
        <mxCell id="0" />
        <mxCell id="1" parent="0" />
        <mxCell id="ZmnVdyL9AOzsVRhm2gg3-1" value="ElevatorCar" style="swimlane;fontStyle=1;align=center;verticalAlign=top;childLayout=stackLayout;horizontal=1;startSize=26;horizontalStack=0;resizeParent=1;resizeParentMax=0;resizeLast=0;collapsible=1;marginBottom=0;whiteSpace=wrap;html=1;" parent="1" vertex="1">
          <mxGeometry x="320" y="110" width="180" height="150" as="geometry">
            <mxRectangle x="310" y="30" width="100" height="30" as="alternateBounds" />
          </mxGeometry>
        </mxCell>
        <mxCell id="ZmnVdyL9AOzsVRhm2gg3-2" value="&lt;div&gt;&lt;font style=&quot;font-size: 10px;&quot;&gt;id: Integer&lt;/font&gt;&lt;/div&gt;&lt;font style=&quot;font-size: 10px;&quot;&gt;internalButton:&amp;nbsp;&lt;span style=&quot;text-align: center;&quot;&gt;&lt;b&gt;InternalButton&lt;/b&gt;&lt;br&gt;status&lt;/span&gt;&lt;span style=&quot;font-weight: 700; text-align: center;&quot;&gt;: Status&lt;/span&gt;&lt;/font&gt;&lt;div&gt;&lt;font style=&quot;font-size: 10px;&quot;&gt;&lt;span style=&quot;text-align: center;&quot;&gt;direction&lt;/span&gt;&lt;span style=&quot;font-weight: 700; text-align: center;&quot;&gt;: Direction&lt;/span&gt;&lt;/font&gt;&lt;/div&gt;&lt;div&gt;&lt;font style=&quot;font-size: 10px;&quot;&gt;&lt;span style=&quot;text-align: center;&quot;&gt;currentFloor&lt;/span&gt;&lt;span style=&quot;font-weight: 700; text-align: center;&quot;&gt;: Integer&lt;/span&gt;&lt;/font&gt;&lt;/div&gt;" style="text;strokeColor=none;fillColor=none;align=left;verticalAlign=top;spacingLeft=4;spacingRight=4;overflow=hidden;rotatable=0;points=[[0,0.5],[1,0.5]];portConstraint=eastwest;whiteSpace=wrap;html=1;" parent="ZmnVdyL9AOzsVRhm2gg3-1" vertex="1">
          <mxGeometry y="26" width="180" height="74" as="geometry" />
        </mxCell>
        <mxCell id="ZmnVdyL9AOzsVRhm2gg3-3" value="" style="line;strokeWidth=1;fillColor=none;align=left;verticalAlign=middle;spacingTop=-1;spacingLeft=3;spacingRight=3;rotatable=0;labelPosition=right;points=[];portConstraint=eastwest;strokeColor=inherit;" parent="ZmnVdyL9AOzsVRhm2gg3-1" vertex="1">
          <mxGeometry y="100" width="180" height="8" as="geometry" />
        </mxCell>
        <mxCell id="ZmnVdyL9AOzsVRhm2gg3-4" value="+ move(type): type" style="text;strokeColor=none;fillColor=none;align=left;verticalAlign=top;spacingLeft=4;spacingRight=4;overflow=hidden;rotatable=0;points=[[0,0.5],[1,0.5]];portConstraint=eastwest;whiteSpace=wrap;html=1;" parent="ZmnVdyL9AOzsVRhm2gg3-1" vertex="1">
          <mxGeometry y="108" width="180" height="42" as="geometry" />
        </mxCell>
        <mxCell id="cElMedajlHEyNHzFNVKe-14" value="&lt;div&gt;&lt;font style=&quot;font-size: 6px;&quot;&gt;&amp;lt;&amp;lt;enumeration&amp;gt;&amp;gt;&lt;/font&gt;&lt;/div&gt;&lt;b&gt;Status&lt;/b&gt;" style="swimlane;fontStyle=0;childLayout=stackLayout;horizontal=1;startSize=26;fillColor=none;horizontalStack=0;resizeParent=1;resizeParentMax=0;resizeLast=0;collapsible=1;marginBottom=0;whiteSpace=wrap;html=1;" parent="1" vertex="1">
          <mxGeometry x="100" y="-60" width="140" height="70" as="geometry" />
        </mxCell>
        <mxCell id="cElMedajlHEyNHzFNVKe-16" value="&lt;font style=&quot;font-size: 10px;&quot;&gt;Idle&lt;/font&gt;&lt;div&gt;&lt;font style=&quot;font-size: 10px;&quot;&gt;Moving&lt;br&gt;&lt;/font&gt;&lt;div&gt;&lt;br&gt;&lt;/div&gt;&lt;/div&gt;" style="text;strokeColor=none;fillColor=none;align=left;verticalAlign=top;spacingLeft=4;spacingRight=4;overflow=hidden;rotatable=0;points=[[0,0.5],[1,0.5]];portConstraint=eastwest;whiteSpace=wrap;html=1;" parent="cElMedajlHEyNHzFNVKe-14" vertex="1">
          <mxGeometry y="26" width="140" height="44" as="geometry" />
        </mxCell>
        <mxCell id="cElMedajlHEyNHzFNVKe-22" style="edgeStyle=orthogonalEdgeStyle;rounded=0;orthogonalLoop=1;jettySize=auto;html=1;entryX=0.389;entryY=0;entryDx=0;entryDy=0;entryPerimeter=0;" parent="1" source="cElMedajlHEyNHzFNVKe-20" target="ZmnVdyL9AOzsVRhm2gg3-1" edge="1">
          <mxGeometry relative="1" as="geometry" />
        </mxCell>
        <mxCell id="cElMedajlHEyNHzFNVKe-20" value="&lt;div&gt;&lt;font style=&quot;font-size: 6px;&quot;&gt;&amp;lt;&amp;lt;enumeration&amp;gt;&amp;gt;&lt;/font&gt;&lt;/div&gt;&lt;b&gt;Direction&lt;/b&gt;" style="swimlane;fontStyle=0;childLayout=stackLayout;horizontal=1;startSize=26;fillColor=none;horizontalStack=0;resizeParent=1;resizeParentMax=0;resizeLast=0;collapsible=1;marginBottom=0;whiteSpace=wrap;html=1;" parent="1" vertex="1">
          <mxGeometry x="320" y="-110" width="140" height="70" as="geometry" />
        </mxCell>
        <mxCell id="cElMedajlHEyNHzFNVKe-21" value="&lt;div&gt;&lt;div&gt;&lt;font style=&quot;font-size: 10px;&quot;&gt;UP&lt;br&gt;Down&lt;/font&gt;&lt;/div&gt;&lt;/div&gt;" style="text;strokeColor=none;fillColor=none;align=left;verticalAlign=top;spacingLeft=4;spacingRight=4;overflow=hidden;rotatable=0;points=[[0,0.5],[1,0.5]];portConstraint=eastwest;whiteSpace=wrap;html=1;" parent="cElMedajlHEyNHzFNVKe-20" vertex="1">
          <mxGeometry y="26" width="140" height="44" as="geometry" />
        </mxCell>
        <mxCell id="cElMedajlHEyNHzFNVKe-23" value="InternaButton" style="swimlane;fontStyle=1;align=center;verticalAlign=top;childLayout=stackLayout;horizontal=1;startSize=26;horizontalStack=0;resizeParent=1;resizeParentMax=0;resizeLast=0;collapsible=1;marginBottom=0;whiteSpace=wrap;html=1;" parent="1" vertex="1">
          <mxGeometry x="10" y="40" width="250" height="86" as="geometry" />
        </mxCell>
        <mxCell id="cElMedajlHEyNHzFNVKe-24" value="+ internalBDispatcher: &lt;b&gt;InternalBDispatcher&lt;/b&gt;" style="text;strokeColor=none;fillColor=none;align=left;verticalAlign=top;spacingLeft=4;spacingRight=4;overflow=hidden;rotatable=0;points=[[0,0.5],[1,0.5]];portConstraint=eastwest;whiteSpace=wrap;html=1;" parent="cElMedajlHEyNHzFNVKe-23" vertex="1">
          <mxGeometry y="26" width="250" height="26" as="geometry" />
        </mxCell>
        <mxCell id="cElMedajlHEyNHzFNVKe-25" value="" style="line;strokeWidth=1;fillColor=none;align=left;verticalAlign=middle;spacingTop=-1;spacingLeft=3;spacingRight=3;rotatable=0;labelPosition=right;points=[];portConstraint=eastwest;strokeColor=inherit;" parent="cElMedajlHEyNHzFNVKe-23" vertex="1">
          <mxGeometry y="52" width="250" height="8" as="geometry" />
        </mxCell>
        <mxCell id="cElMedajlHEyNHzFNVKe-26" value="+ pressButton(int floor, int liftID): void" style="text;strokeColor=none;fillColor=none;align=left;verticalAlign=top;spacingLeft=4;spacingRight=4;overflow=hidden;rotatable=0;points=[[0,0.5],[1,0.5]];portConstraint=eastwest;whiteSpace=wrap;html=1;" parent="cElMedajlHEyNHzFNVKe-23" vertex="1">
          <mxGeometry y="60" width="250" height="26" as="geometry" />
        </mxCell>
        <mxCell id="cElMedajlHEyNHzFNVKe-28" value="Display" style="swimlane;fontStyle=1;align=center;verticalAlign=top;childLayout=stackLayout;horizontal=1;startSize=26;horizontalStack=0;resizeParent=1;resizeParentMax=0;resizeLast=0;collapsible=1;marginBottom=0;whiteSpace=wrap;html=1;" parent="1" vertex="1">
          <mxGeometry x="510" y="-40" width="160" height="68" as="geometry" />
        </mxCell>
        <mxCell id="cElMedajlHEyNHzFNVKe-29" value="floor: Integer&lt;div&gt;direction: Direction&lt;br&gt;&lt;br&gt;&lt;/div&gt;" style="text;strokeColor=none;fillColor=none;align=left;verticalAlign=top;spacingLeft=4;spacingRight=4;overflow=hidden;rotatable=0;points=[[0,0.5],[1,0.5]];portConstraint=eastwest;whiteSpace=wrap;html=1;" parent="cElMedajlHEyNHzFNVKe-28" vertex="1">
          <mxGeometry y="26" width="160" height="34" as="geometry" />
        </mxCell>
        <mxCell id="cElMedajlHEyNHzFNVKe-30" value="" style="line;strokeWidth=1;fillColor=none;align=left;verticalAlign=middle;spacingTop=-1;spacingLeft=3;spacingRight=3;rotatable=0;labelPosition=right;points=[];portConstraint=eastwest;strokeColor=inherit;" parent="cElMedajlHEyNHzFNVKe-28" vertex="1">
          <mxGeometry y="60" width="160" height="8" as="geometry" />
        </mxCell>
        <mxCell id="cElMedajlHEyNHzFNVKe-32" style="edgeStyle=orthogonalEdgeStyle;rounded=0;orthogonalLoop=1;jettySize=auto;html=1;exitX=1;exitY=0.5;exitDx=0;exitDy=0;entryX=-0.016;entryY=0.568;entryDx=0;entryDy=0;entryPerimeter=0;" parent="1" source="cElMedajlHEyNHzFNVKe-24" target="ZmnVdyL9AOzsVRhm2gg3-2" edge="1">
          <mxGeometry relative="1" as="geometry" />
        </mxCell>
        <mxCell id="cElMedajlHEyNHzFNVKe-33" style="edgeStyle=orthogonalEdgeStyle;rounded=0;orthogonalLoop=1;jettySize=auto;html=1;entryX=0.134;entryY=-0.017;entryDx=0;entryDy=0;entryPerimeter=0;" parent="1" source="cElMedajlHEyNHzFNVKe-16" target="ZmnVdyL9AOzsVRhm2gg3-1" edge="1">
          <mxGeometry relative="1" as="geometry" />
        </mxCell>
        <mxCell id="cElMedajlHEyNHzFNVKe-34" style="edgeStyle=orthogonalEdgeStyle;rounded=0;orthogonalLoop=1;jettySize=auto;html=1;entryX=0.019;entryY=0.139;entryDx=0;entryDy=0;entryPerimeter=0;" parent="1" source="cElMedajlHEyNHzFNVKe-21" target="cElMedajlHEyNHzFNVKe-28" edge="1">
          <mxGeometry relative="1" as="geometry" />
        </mxCell>
        <mxCell id="cElMedajlHEyNHzFNVKe-35" style="edgeStyle=orthogonalEdgeStyle;rounded=0;orthogonalLoop=1;jettySize=auto;html=1;entryX=0.869;entryY=-0.02;entryDx=0;entryDy=0;entryPerimeter=0;" parent="1" source="cElMedajlHEyNHzFNVKe-28" target="ZmnVdyL9AOzsVRhm2gg3-1" edge="1">
          <mxGeometry relative="1" as="geometry" />
        </mxCell>
        <mxCell id="cElMedajlHEyNHzFNVKe-36" value="ElevatorController" style="swimlane;fontStyle=1;align=center;verticalAlign=top;childLayout=stackLayout;horizontal=1;startSize=26;horizontalStack=0;resizeParent=1;resizeParentMax=0;resizeLast=0;collapsible=1;marginBottom=0;whiteSpace=wrap;html=1;" parent="1" vertex="1">
          <mxGeometry x="320" y="310" width="160" height="86" as="geometry" />
        </mxCell>
        <mxCell id="cElMedajlHEyNHzFNVKe-37" value="+ elevatorCar: &lt;b&gt;ElevatorCar&lt;/b&gt;" style="text;strokeColor=none;fillColor=none;align=left;verticalAlign=top;spacingLeft=4;spacingRight=4;overflow=hidden;rotatable=0;points=[[0,0.5],[1,0.5]];portConstraint=eastwest;whiteSpace=wrap;html=1;" parent="cElMedajlHEyNHzFNVKe-36" vertex="1">
          <mxGeometry y="26" width="160" height="26" as="geometry" />
        </mxCell>
        <mxCell id="cElMedajlHEyNHzFNVKe-38" value="" style="line;strokeWidth=1;fillColor=none;align=left;verticalAlign=middle;spacingTop=-1;spacingLeft=3;spacingRight=3;rotatable=0;labelPosition=right;points=[];portConstraint=eastwest;strokeColor=inherit;" parent="cElMedajlHEyNHzFNVKe-36" vertex="1">
          <mxGeometry y="52" width="160" height="8" as="geometry" />
        </mxCell>
        <mxCell id="cElMedajlHEyNHzFNVKe-39" value="+ method(type): type" style="text;strokeColor=none;fillColor=none;align=left;verticalAlign=top;spacingLeft=4;spacingRight=4;overflow=hidden;rotatable=0;points=[[0,0.5],[1,0.5]];portConstraint=eastwest;whiteSpace=wrap;html=1;" parent="cElMedajlHEyNHzFNVKe-36" vertex="1">
          <mxGeometry y="60" width="160" height="26" as="geometry" />
        </mxCell>
        <mxCell id="cElMedajlHEyNHzFNVKe-40" style="edgeStyle=orthogonalEdgeStyle;rounded=0;orthogonalLoop=1;jettySize=auto;html=1;entryX=0.564;entryY=0.01;entryDx=0;entryDy=0;entryPerimeter=0;" parent="1" source="ZmnVdyL9AOzsVRhm2gg3-1" target="cElMedajlHEyNHzFNVKe-36" edge="1">
          <mxGeometry relative="1" as="geometry" />
        </mxCell>
        <mxCell id="6mBxo5NONj3Z4BcxOqcp-29" style="edgeStyle=orthogonalEdgeStyle;rounded=0;orthogonalLoop=1;jettySize=auto;html=1;entryX=0;entryY=0.25;entryDx=0;entryDy=0;" edge="1" parent="1" source="cElMedajlHEyNHzFNVKe-41" target="cElMedajlHEyNHzFNVKe-36">
          <mxGeometry relative="1" as="geometry" />
        </mxCell>
        <mxCell id="cElMedajlHEyNHzFNVKe-41" value="InternalBDispatcher" style="swimlane;fontStyle=1;align=center;verticalAlign=top;childLayout=stackLayout;horizontal=1;startSize=26;horizontalStack=0;resizeParent=1;resizeParentMax=0;resizeLast=0;collapsible=1;marginBottom=0;whiteSpace=wrap;html=1;" parent="1" vertex="1">
          <mxGeometry x="20" y="260" width="210" height="86" as="geometry" />
        </mxCell>
        <mxCell id="cElMedajlHEyNHzFNVKe-42" value="+ List&amp;lt;&lt;span style=&quot;text-align: center;&quot;&gt;ElevatorController&lt;/span&gt;&amp;gt;:&lt;b&gt;List&lt;/b&gt;" style="text;strokeColor=none;fillColor=none;align=left;verticalAlign=top;spacingLeft=4;spacingRight=4;overflow=hidden;rotatable=0;points=[[0,0.5],[1,0.5]];portConstraint=eastwest;whiteSpace=wrap;html=1;" parent="cElMedajlHEyNHzFNVKe-41" vertex="1">
          <mxGeometry y="26" width="210" height="26" as="geometry" />
        </mxCell>
        <mxCell id="cElMedajlHEyNHzFNVKe-43" value="" style="line;strokeWidth=1;fillColor=none;align=left;verticalAlign=middle;spacingTop=-1;spacingLeft=3;spacingRight=3;rotatable=0;labelPosition=right;points=[];portConstraint=eastwest;strokeColor=inherit;" parent="cElMedajlHEyNHzFNVKe-41" vertex="1">
          <mxGeometry y="52" width="210" height="8" as="geometry" />
        </mxCell>
        <mxCell id="cElMedajlHEyNHzFNVKe-44" value="+ submitReq(int id, int liftID): type" style="text;strokeColor=none;fillColor=none;align=left;verticalAlign=top;spacingLeft=4;spacingRight=4;overflow=hidden;rotatable=0;points=[[0,0.5],[1,0.5]];portConstraint=eastwest;whiteSpace=wrap;html=1;" parent="cElMedajlHEyNHzFNVKe-41" vertex="1">
          <mxGeometry y="60" width="210" height="26" as="geometry" />
        </mxCell>
        <mxCell id="cElMedajlHEyNHzFNVKe-46" style="edgeStyle=orthogonalEdgeStyle;rounded=0;orthogonalLoop=1;jettySize=auto;html=1;entryX=0.625;entryY=0;entryDx=0;entryDy=0;entryPerimeter=0;" parent="1" source="cElMedajlHEyNHzFNVKe-23" target="cElMedajlHEyNHzFNVKe-41" edge="1">
          <mxGeometry relative="1" as="geometry" />
        </mxCell>
        <mxCell id="6mBxo5NONj3Z4BcxOqcp-5" value="Floor" style="swimlane;fontStyle=1;align=center;verticalAlign=top;childLayout=stackLayout;horizontal=1;startSize=26;horizontalStack=0;resizeParent=1;resizeParentMax=0;resizeLast=0;collapsible=1;marginBottom=0;whiteSpace=wrap;html=1;" vertex="1" parent="1">
          <mxGeometry x="640" y="100" width="190" height="128" as="geometry" />
        </mxCell>
        <mxCell id="6mBxo5NONj3Z4BcxOqcp-6" value="+ externalButton:ExternalButton" style="text;strokeColor=none;fillColor=none;align=left;verticalAlign=top;spacingLeft=4;spacingRight=4;overflow=hidden;rotatable=0;points=[[0,0.5],[1,0.5]];portConstraint=eastwest;whiteSpace=wrap;html=1;" vertex="1" parent="6mBxo5NONj3Z4BcxOqcp-5">
          <mxGeometry y="26" width="190" height="44" as="geometry" />
        </mxCell>
        <mxCell id="6mBxo5NONj3Z4BcxOqcp-7" value="" style="line;strokeWidth=1;fillColor=none;align=left;verticalAlign=middle;spacingTop=-1;spacingLeft=3;spacingRight=3;rotatable=0;labelPosition=right;points=[];portConstraint=eastwest;strokeColor=inherit;" vertex="1" parent="6mBxo5NONj3Z4BcxOqcp-5">
          <mxGeometry y="70" width="190" height="8" as="geometry" />
        </mxCell>
        <mxCell id="6mBxo5NONj3Z4BcxOqcp-8" value="+ method(type): type" style="text;strokeColor=none;fillColor=none;align=left;verticalAlign=top;spacingLeft=4;spacingRight=4;overflow=hidden;rotatable=0;points=[[0,0.5],[1,0.5]];portConstraint=eastwest;whiteSpace=wrap;html=1;" vertex="1" parent="6mBxo5NONj3Z4BcxOqcp-5">
          <mxGeometry y="78" width="190" height="50" as="geometry" />
        </mxCell>
        <mxCell id="6mBxo5NONj3Z4BcxOqcp-9" value="InternaButton" style="swimlane;fontStyle=1;align=center;verticalAlign=top;childLayout=stackLayout;horizontal=1;startSize=26;horizontalStack=0;resizeParent=1;resizeParentMax=0;resizeLast=0;collapsible=1;marginBottom=0;whiteSpace=wrap;html=1;" vertex="1" parent="1">
          <mxGeometry x="10" y="40" width="250" height="86" as="geometry" />
        </mxCell>
        <mxCell id="6mBxo5NONj3Z4BcxOqcp-10" value="+ internalBDispatcher: &lt;b&gt;InternalBDispatcher&lt;/b&gt;" style="text;strokeColor=none;fillColor=none;align=left;verticalAlign=top;spacingLeft=4;spacingRight=4;overflow=hidden;rotatable=0;points=[[0,0.5],[1,0.5]];portConstraint=eastwest;whiteSpace=wrap;html=1;" vertex="1" parent="6mBxo5NONj3Z4BcxOqcp-9">
          <mxGeometry y="26" width="250" height="26" as="geometry" />
        </mxCell>
        <mxCell id="6mBxo5NONj3Z4BcxOqcp-11" value="" style="line;strokeWidth=1;fillColor=none;align=left;verticalAlign=middle;spacingTop=-1;spacingLeft=3;spacingRight=3;rotatable=0;labelPosition=right;points=[];portConstraint=eastwest;strokeColor=inherit;" vertex="1" parent="6mBxo5NONj3Z4BcxOqcp-9">
          <mxGeometry y="52" width="250" height="8" as="geometry" />
        </mxCell>
        <mxCell id="6mBxo5NONj3Z4BcxOqcp-12" value="+ pressButton(int floor, int liftID): void" style="text;strokeColor=none;fillColor=none;align=left;verticalAlign=top;spacingLeft=4;spacingRight=4;overflow=hidden;rotatable=0;points=[[0,0.5],[1,0.5]];portConstraint=eastwest;whiteSpace=wrap;html=1;" vertex="1" parent="6mBxo5NONj3Z4BcxOqcp-9">
          <mxGeometry y="60" width="250" height="26" as="geometry" />
        </mxCell>
        <mxCell id="6mBxo5NONj3Z4BcxOqcp-13" value="ExternalButton" style="swimlane;fontStyle=1;align=center;verticalAlign=top;childLayout=stackLayout;horizontal=1;startSize=26;horizontalStack=0;resizeParent=1;resizeParentMax=0;resizeLast=0;collapsible=1;marginBottom=0;whiteSpace=wrap;html=1;" vertex="1" parent="1">
          <mxGeometry x="620" y="290" width="270" height="86" as="geometry" />
        </mxCell>
        <mxCell id="6mBxo5NONj3Z4BcxOqcp-14" value="+ externalBDispatcher: &lt;b&gt;externalBDispatcher&lt;/b&gt;" style="text;strokeColor=none;fillColor=none;align=left;verticalAlign=top;spacingLeft=4;spacingRight=4;overflow=hidden;rotatable=0;points=[[0,0.5],[1,0.5]];portConstraint=eastwest;whiteSpace=wrap;html=1;" vertex="1" parent="6mBxo5NONj3Z4BcxOqcp-13">
          <mxGeometry y="26" width="270" height="26" as="geometry" />
        </mxCell>
        <mxCell id="6mBxo5NONj3Z4BcxOqcp-15" value="" style="line;strokeWidth=1;fillColor=none;align=left;verticalAlign=middle;spacingTop=-1;spacingLeft=3;spacingRight=3;rotatable=0;labelPosition=right;points=[];portConstraint=eastwest;strokeColor=inherit;" vertex="1" parent="6mBxo5NONj3Z4BcxOqcp-13">
          <mxGeometry y="52" width="270" height="8" as="geometry" />
        </mxCell>
        <mxCell id="6mBxo5NONj3Z4BcxOqcp-16" value="+ pressButton(int floor, Direction direction): void" style="text;strokeColor=none;fillColor=none;align=left;verticalAlign=top;spacingLeft=4;spacingRight=4;overflow=hidden;rotatable=0;points=[[0,0.5],[1,0.5]];portConstraint=eastwest;whiteSpace=wrap;html=1;" vertex="1" parent="6mBxo5NONj3Z4BcxOqcp-13">
          <mxGeometry y="60" width="270" height="26" as="geometry" />
        </mxCell>
        <mxCell id="6mBxo5NONj3Z4BcxOqcp-18" style="edgeStyle=orthogonalEdgeStyle;rounded=0;orthogonalLoop=1;jettySize=auto;html=1;entryX=0.428;entryY=-0.037;entryDx=0;entryDy=0;entryPerimeter=0;" edge="1" parent="1" source="6mBxo5NONj3Z4BcxOqcp-5" target="6mBxo5NONj3Z4BcxOqcp-13">
          <mxGeometry relative="1" as="geometry">
            <mxPoint x="735" y="280" as="targetPoint" />
          </mxGeometry>
        </mxCell>
        <mxCell id="6mBxo5NONj3Z4BcxOqcp-50" style="edgeStyle=orthogonalEdgeStyle;rounded=0;orthogonalLoop=1;jettySize=auto;html=1;entryX=0.5;entryY=0;entryDx=0;entryDy=0;" edge="1" parent="1" source="6mBxo5NONj3Z4BcxOqcp-19" target="6mBxo5NONj3Z4BcxOqcp-24">
          <mxGeometry relative="1" as="geometry" />
        </mxCell>
        <mxCell id="6mBxo5NONj3Z4BcxOqcp-19" value="ExternalBDispatcher" style="swimlane;fontStyle=1;align=center;verticalAlign=top;childLayout=stackLayout;horizontal=1;startSize=26;horizontalStack=0;resizeParent=1;resizeParentMax=0;resizeLast=0;collapsible=1;marginBottom=0;whiteSpace=wrap;html=1;" vertex="1" parent="1">
          <mxGeometry x="640" y="440" width="260" height="108" as="geometry" />
        </mxCell>
        <mxCell id="6mBxo5NONj3Z4BcxOqcp-20" value="+ List&amp;lt;&lt;span style=&quot;text-align: center;&quot;&gt;ElevatorController&lt;/span&gt;&amp;gt;:&lt;b&gt;List&lt;/b&gt;&lt;div&gt;+ ElevetorCarStrategy: elevatorCarStrategy&lt;/div&gt;" style="text;strokeColor=none;fillColor=none;align=left;verticalAlign=top;spacingLeft=4;spacingRight=4;overflow=hidden;rotatable=0;points=[[0,0.5],[1,0.5]];portConstraint=eastwest;whiteSpace=wrap;html=1;" vertex="1" parent="6mBxo5NONj3Z4BcxOqcp-19">
          <mxGeometry y="26" width="260" height="34" as="geometry" />
        </mxCell>
        <mxCell id="6mBxo5NONj3Z4BcxOqcp-21" value="" style="line;strokeWidth=1;fillColor=none;align=left;verticalAlign=middle;spacingTop=-1;spacingLeft=3;spacingRight=3;rotatable=0;labelPosition=right;points=[];portConstraint=eastwest;strokeColor=inherit;" vertex="1" parent="6mBxo5NONj3Z4BcxOqcp-19">
          <mxGeometry y="60" width="260" height="8" as="geometry" />
        </mxCell>
        <mxCell id="6mBxo5NONj3Z4BcxOqcp-22" value="+ submitReq(int floor, Direction direction): type" style="text;strokeColor=none;fillColor=none;align=left;verticalAlign=top;spacingLeft=4;spacingRight=4;overflow=hidden;rotatable=0;points=[[0,0.5],[1,0.5]];portConstraint=eastwest;whiteSpace=wrap;html=1;" vertex="1" parent="6mBxo5NONj3Z4BcxOqcp-19">
          <mxGeometry y="68" width="260" height="40" as="geometry" />
        </mxCell>
        <mxCell id="6mBxo5NONj3Z4BcxOqcp-23" style="edgeStyle=orthogonalEdgeStyle;rounded=0;orthogonalLoop=1;jettySize=auto;html=1;entryX=0.548;entryY=0;entryDx=0;entryDy=0;entryPerimeter=0;" edge="1" parent="1" source="6mBxo5NONj3Z4BcxOqcp-13" target="6mBxo5NONj3Z4BcxOqcp-19">
          <mxGeometry relative="1" as="geometry" />
        </mxCell>
        <mxCell id="6mBxo5NONj3Z4BcxOqcp-24" value="ElevatorCarStrategy" style="swimlane;fontStyle=1;align=center;verticalAlign=top;childLayout=stackLayout;horizontal=1;startSize=26;horizontalStack=0;resizeParent=1;resizeParentMax=0;resizeLast=0;collapsible=1;marginBottom=0;whiteSpace=wrap;html=1;" vertex="1" parent="1">
          <mxGeometry x="640" y="610" width="260" height="86" as="geometry" />
        </mxCell>
        <mxCell id="6mBxo5NONj3Z4BcxOqcp-25" value="+ List&amp;lt;&lt;span style=&quot;text-align: center;&quot;&gt;&amp;nbsp;ElevatorController&amp;nbsp;&lt;/span&gt;&amp;gt;:&lt;b&gt;List&lt;/b&gt;" style="text;strokeColor=none;fillColor=none;align=left;verticalAlign=top;spacingLeft=4;spacingRight=4;overflow=hidden;rotatable=0;points=[[0,0.5],[1,0.5]];portConstraint=eastwest;whiteSpace=wrap;html=1;" vertex="1" parent="6mBxo5NONj3Z4BcxOqcp-24">
          <mxGeometry y="26" width="260" height="26" as="geometry" />
        </mxCell>
        <mxCell id="6mBxo5NONj3Z4BcxOqcp-26" value="" style="line;strokeWidth=1;fillColor=none;align=left;verticalAlign=middle;spacingTop=-1;spacingLeft=3;spacingRight=3;rotatable=0;labelPosition=right;points=[];portConstraint=eastwest;strokeColor=inherit;" vertex="1" parent="6mBxo5NONj3Z4BcxOqcp-24">
          <mxGeometry y="52" width="260" height="8" as="geometry" />
        </mxCell>
        <mxCell id="6mBxo5NONj3Z4BcxOqcp-27" value="+ getElevatorCar()" style="text;strokeColor=none;fillColor=none;align=left;verticalAlign=top;spacingLeft=4;spacingRight=4;overflow=hidden;rotatable=0;points=[[0,0.5],[1,0.5]];portConstraint=eastwest;whiteSpace=wrap;html=1;" vertex="1" parent="6mBxo5NONj3Z4BcxOqcp-24">
          <mxGeometry y="60" width="260" height="26" as="geometry" />
        </mxCell>
        <mxCell id="6mBxo5NONj3Z4BcxOqcp-28" style="edgeStyle=orthogonalEdgeStyle;rounded=0;orthogonalLoop=1;jettySize=auto;html=1;exitX=0;exitY=0.5;exitDx=0;exitDy=0;entryX=1;entryY=0.5;entryDx=0;entryDy=0;" edge="1" parent="1" source="6mBxo5NONj3Z4BcxOqcp-20" target="cElMedajlHEyNHzFNVKe-39">
          <mxGeometry relative="1" as="geometry" />
        </mxCell>
        <mxCell id="6mBxo5NONj3Z4BcxOqcp-30" value="OddEvenStrategy" style="swimlane;fontStyle=1;align=center;verticalAlign=top;childLayout=stackLayout;horizontal=1;startSize=26;horizontalStack=0;resizeParent=1;resizeParentMax=0;resizeLast=0;collapsible=1;marginBottom=0;whiteSpace=wrap;html=1;" vertex="1" parent="1">
          <mxGeometry x="390" y="790" width="260" height="86" as="geometry" />
        </mxCell>
        <mxCell id="6mBxo5NONj3Z4BcxOqcp-31" value="+ List&amp;lt;&lt;span style=&quot;text-align: center;&quot;&gt;&amp;nbsp;ElevatorController&amp;nbsp;&lt;/span&gt;&amp;gt;:&lt;b&gt;List&lt;/b&gt;" style="text;strokeColor=none;fillColor=none;align=left;verticalAlign=top;spacingLeft=4;spacingRight=4;overflow=hidden;rotatable=0;points=[[0,0.5],[1,0.5]];portConstraint=eastwest;whiteSpace=wrap;html=1;" vertex="1" parent="6mBxo5NONj3Z4BcxOqcp-30">
          <mxGeometry y="26" width="260" height="26" as="geometry" />
        </mxCell>
        <mxCell id="6mBxo5NONj3Z4BcxOqcp-32" value="" style="line;strokeWidth=1;fillColor=none;align=left;verticalAlign=middle;spacingTop=-1;spacingLeft=3;spacingRight=3;rotatable=0;labelPosition=right;points=[];portConstraint=eastwest;strokeColor=inherit;" vertex="1" parent="6mBxo5NONj3Z4BcxOqcp-30">
          <mxGeometry y="52" width="260" height="8" as="geometry" />
        </mxCell>
        <mxCell id="6mBxo5NONj3Z4BcxOqcp-33" value="+ getElevatorCar()" style="text;strokeColor=none;fillColor=none;align=left;verticalAlign=top;spacingLeft=4;spacingRight=4;overflow=hidden;rotatable=0;points=[[0,0.5],[1,0.5]];portConstraint=eastwest;whiteSpace=wrap;html=1;" vertex="1" parent="6mBxo5NONj3Z4BcxOqcp-30">
          <mxGeometry y="60" width="260" height="26" as="geometry" />
        </mxCell>
        <mxCell id="6mBxo5NONj3Z4BcxOqcp-34" value="FloorWiseLiftStrategy" style="swimlane;fontStyle=1;align=center;verticalAlign=top;childLayout=stackLayout;horizontal=1;startSize=26;horizontalStack=0;resizeParent=1;resizeParentMax=0;resizeLast=0;collapsible=1;marginBottom=0;whiteSpace=wrap;html=1;" vertex="1" parent="1">
          <mxGeometry x="820" y="790" width="260" height="86" as="geometry" />
        </mxCell>
        <mxCell id="6mBxo5NONj3Z4BcxOqcp-35" value="+ List&amp;lt;&lt;span style=&quot;text-align: center;&quot;&gt;&amp;nbsp;ElevatorController&amp;nbsp;&lt;/span&gt;&amp;gt;:&lt;b&gt;List&lt;/b&gt;" style="text;strokeColor=none;fillColor=none;align=left;verticalAlign=top;spacingLeft=4;spacingRight=4;overflow=hidden;rotatable=0;points=[[0,0.5],[1,0.5]];portConstraint=eastwest;whiteSpace=wrap;html=1;" vertex="1" parent="6mBxo5NONj3Z4BcxOqcp-34">
          <mxGeometry y="26" width="260" height="26" as="geometry" />
        </mxCell>
        <mxCell id="6mBxo5NONj3Z4BcxOqcp-36" value="" style="line;strokeWidth=1;fillColor=none;align=left;verticalAlign=middle;spacingTop=-1;spacingLeft=3;spacingRight=3;rotatable=0;labelPosition=right;points=[];portConstraint=eastwest;strokeColor=inherit;" vertex="1" parent="6mBxo5NONj3Z4BcxOqcp-34">
          <mxGeometry y="52" width="260" height="8" as="geometry" />
        </mxCell>
        <mxCell id="6mBxo5NONj3Z4BcxOqcp-37" value="+ getElevatorCar()" style="text;strokeColor=none;fillColor=none;align=left;verticalAlign=top;spacingLeft=4;spacingRight=4;overflow=hidden;rotatable=0;points=[[0,0.5],[1,0.5]];portConstraint=eastwest;whiteSpace=wrap;html=1;" vertex="1" parent="6mBxo5NONj3Z4BcxOqcp-34">
          <mxGeometry y="60" width="260" height="26" as="geometry" />
        </mxCell>
        <mxCell id="6mBxo5NONj3Z4BcxOqcp-38" value="" style="endArrow=block;dashed=1;endFill=0;endSize=12;html=1;rounded=0;entryX=0.851;entryY=-0.002;entryDx=0;entryDy=0;entryPerimeter=0;exitX=0.146;exitY=1.104;exitDx=0;exitDy=0;exitPerimeter=0;" edge="1" parent="1" source="6mBxo5NONj3Z4BcxOqcp-27" target="6mBxo5NONj3Z4BcxOqcp-30">
          <mxGeometry width="160" relative="1" as="geometry">
            <mxPoint x="540" y="720" as="sourcePoint" />
            <mxPoint x="700" y="720" as="targetPoint" />
          </mxGeometry>
        </mxCell>
        <mxCell id="6mBxo5NONj3Z4BcxOqcp-40" value="" style="endArrow=block;dashed=1;endFill=0;endSize=12;html=1;rounded=0;entryX=0.134;entryY=-0.045;entryDx=0;entryDy=0;entryPerimeter=0;exitX=0.487;exitY=1.075;exitDx=0;exitDy=0;exitPerimeter=0;" edge="1" parent="1" source="6mBxo5NONj3Z4BcxOqcp-27" target="6mBxo5NONj3Z4BcxOqcp-34">
          <mxGeometry width="160" relative="1" as="geometry">
            <mxPoint x="560" y="720" as="sourcePoint" />
            <mxPoint x="720" y="720" as="targetPoint" />
          </mxGeometry>
        </mxCell>
        <mxCell id="6mBxo5NONj3Z4BcxOqcp-41" value="Floor" style="swimlane;fontStyle=1;align=center;verticalAlign=top;childLayout=stackLayout;horizontal=1;startSize=26;horizontalStack=0;resizeParent=1;resizeParentMax=0;resizeLast=0;collapsible=1;marginBottom=0;whiteSpace=wrap;html=1;" vertex="1" parent="1">
          <mxGeometry x="640" y="100" width="190" height="128" as="geometry" />
        </mxCell>
        <mxCell id="6mBxo5NONj3Z4BcxOqcp-42" value="+ externalButton:ExternalButton" style="text;strokeColor=none;fillColor=none;align=left;verticalAlign=top;spacingLeft=4;spacingRight=4;overflow=hidden;rotatable=0;points=[[0,0.5],[1,0.5]];portConstraint=eastwest;whiteSpace=wrap;html=1;" vertex="1" parent="6mBxo5NONj3Z4BcxOqcp-41">
          <mxGeometry y="26" width="190" height="44" as="geometry" />
        </mxCell>
        <mxCell id="6mBxo5NONj3Z4BcxOqcp-43" value="" style="line;strokeWidth=1;fillColor=none;align=left;verticalAlign=middle;spacingTop=-1;spacingLeft=3;spacingRight=3;rotatable=0;labelPosition=right;points=[];portConstraint=eastwest;strokeColor=inherit;" vertex="1" parent="6mBxo5NONj3Z4BcxOqcp-41">
          <mxGeometry y="70" width="190" height="8" as="geometry" />
        </mxCell>
        <mxCell id="6mBxo5NONj3Z4BcxOqcp-44" value="+ method(type): type" style="text;strokeColor=none;fillColor=none;align=left;verticalAlign=top;spacingLeft=4;spacingRight=4;overflow=hidden;rotatable=0;points=[[0,0.5],[1,0.5]];portConstraint=eastwest;whiteSpace=wrap;html=1;" vertex="1" parent="6mBxo5NONj3Z4BcxOqcp-41">
          <mxGeometry y="78" width="190" height="50" as="geometry" />
        </mxCell>
        <mxCell id="6mBxo5NONj3Z4BcxOqcp-49" style="edgeStyle=orthogonalEdgeStyle;rounded=0;orthogonalLoop=1;jettySize=auto;html=1;" edge="1" parent="1" source="6mBxo5NONj3Z4BcxOqcp-45" target="6mBxo5NONj3Z4BcxOqcp-41">
          <mxGeometry relative="1" as="geometry" />
        </mxCell>
        <mxCell id="6mBxo5NONj3Z4BcxOqcp-45" value="Building" style="swimlane;fontStyle=1;align=center;verticalAlign=top;childLayout=stackLayout;horizontal=1;startSize=26;horizontalStack=0;resizeParent=1;resizeParentMax=0;resizeLast=0;collapsible=1;marginBottom=0;whiteSpace=wrap;html=1;" vertex="1" parent="1">
          <mxGeometry x="800" y="-118" width="190" height="128" as="geometry" />
        </mxCell>
        <mxCell id="6mBxo5NONj3Z4BcxOqcp-46" value="+ List&amp;lt;Floor&amp;gt;: floors" style="text;strokeColor=none;fillColor=none;align=left;verticalAlign=top;spacingLeft=4;spacingRight=4;overflow=hidden;rotatable=0;points=[[0,0.5],[1,0.5]];portConstraint=eastwest;whiteSpace=wrap;html=1;" vertex="1" parent="6mBxo5NONj3Z4BcxOqcp-45">
          <mxGeometry y="26" width="190" height="44" as="geometry" />
        </mxCell>
        <mxCell id="6mBxo5NONj3Z4BcxOqcp-47" value="" style="line;strokeWidth=1;fillColor=none;align=left;verticalAlign=middle;spacingTop=-1;spacingLeft=3;spacingRight=3;rotatable=0;labelPosition=right;points=[];portConstraint=eastwest;strokeColor=inherit;" vertex="1" parent="6mBxo5NONj3Z4BcxOqcp-45">
          <mxGeometry y="70" width="190" height="8" as="geometry" />
        </mxCell>
        <mxCell id="6mBxo5NONj3Z4BcxOqcp-48" value="+ method(type): type" style="text;strokeColor=none;fillColor=none;align=left;verticalAlign=top;spacingLeft=4;spacingRight=4;overflow=hidden;rotatable=0;points=[[0,0.5],[1,0.5]];portConstraint=eastwest;whiteSpace=wrap;html=1;" vertex="1" parent="6mBxo5NONj3Z4BcxOqcp-45">
          <mxGeometry y="78" width="190" height="50" as="geometry" />
        </mxCell>
      </root>
    </mxGraphModel>
  </diagram>
</mxfile>
